<?xml version="1.0" encoding="UTF-8" standalone="no"?>
<!DOCTYPE svg PUBLIC "-//W3C//DTD SVG 1.0//EN" "http://www.w3.org/TR/2001/PR-SVG-20010719/DTD/svg10.dtd">
<svg width="34cm" height="22cm" viewBox="-96 -646 671 422" xmlns="http://www.w3.org/2000/svg" xmlns:xlink="http://www.w3.org/1999/xlink">
  <g>
    <rect style="fill: #ea4646" x="196.891" y="-572.849" width="81.9" height="36"/>
    <rect style="fill: none; fill-opacity:0; stroke-width: 2; stroke: #000000" x="196.891" y="-572.849" width="81.9" height="36"/>
    <text font-size="12.7998" style="fill: #000000;text-anchor:middle;font-family:monospace;font-style:normal;font-weight:normal" x="237.841" y="-550.849">student</text>
  </g>
  <g>
    <ellipse style="fill: #ea4646" cx="148.785" cy="-626.361" rx="35.4" ry="18"/>
    <ellipse style="fill: none; fill-opacity:0; stroke-width: 2; stroke: #000000" cx="148.785" cy="-626.361" rx="35.4" ry="18"/>
    <text font-size="12.7998" style="fill: #000000;text-anchor:middle;font-family:monospace;font-style:normal;font-weight:normal" x="148.785" y="-622.361">Imie</text>
  </g>
  <g>
    <ellipse style="fill: #ea4646" cx="132.25" cy="-570.521" rx="50.8" ry="18"/>
    <ellipse style="fill: none; fill-opacity:0; stroke-width: 2; stroke: #000000" cx="132.25" cy="-570.521" rx="50.8" ry="18"/>
    <text font-size="12.7998" style="fill: #000000;text-anchor:middle;font-family:monospace;font-style:normal;font-weight:normal" x="132.25" y="-566.521">Nazwisko</text>
  </g>
  <g>
    <ellipse style="fill: #ea4646" cx="241.902" cy="-620.654" rx="43.1" ry="18"/>
    <ellipse style="fill: none; fill-opacity:0; stroke-width: 2; stroke: #000000" cx="241.902" cy="-620.654" rx="43.1" ry="18"/>
    <text font-size="12.7998" style="fill: #000000;text-anchor:middle;font-family:monospace;font-style:normal;font-weight:normal" x="241.902" y="-616.654">Indeks</text>
    <line style="fill: none; fill-opacity:0; stroke-width: 2; stroke: #000000" x1="218.802" y1="-612.654" x2="265.002" y2="-612.654"/>
  </g>
  <line style="fill: none; fill-opacity:0; stroke-width: 2; stroke: #000000" x1="214.174" y1="-573.853" x2="168.494" y2="-610.534"/>
  <line style="fill: none; fill-opacity:0; stroke-width: 2; stroke: #000000" x1="195.924" y1="-561.07" x2="179.271" y2="-563.542"/>
  <line style="fill: none; fill-opacity:0; stroke-width: 2; stroke: #000000" x1="239.013" y1="-573.847" x2="240.73" y2="-601.656"/>
  <g>
    <polygon style="fill: #ffa500" points="369.13,-517.942 416.08,-546.112 463.03,-517.942 416.08,-489.772 "/>
    <polygon style="fill: none; fill-opacity:0; stroke-width: 2; stroke: #000000" points="369.13,-517.942 416.08,-546.112 463.03,-517.942 416.08,-489.772 "/>
    <text font-size="12.7998" style="fill: #000000;text-anchor:end;font-family:monospace;font-style:normal;font-weight:normal" x="363.13" y="-523.942"></text>
    <text font-size="12.7998" style="fill: #000000;text-anchor:start;font-family:monospace;font-style:normal;font-weight:normal" x="469.03" y="-523.942"></text>
    <text font-size="12.7998" style="fill: #000000;text-anchor:middle;font-family:monospace;font-style:normal;font-weight:normal" x="416.08" y="-513.942">Zalicza</text>
  </g>
  <g>
    <ellipse style="fill: #ffa500" cx="430.258" cy="-589.687" rx="35.4" ry="18"/>
    <ellipse style="fill: none; fill-opacity:0; stroke-width: 2; stroke: #000000" cx="430.258" cy="-589.687" rx="35.4" ry="18"/>
    <text font-size="12.7998" style="fill: #000000;text-anchor:middle;font-family:monospace;font-style:normal;font-weight:normal" x="430.258" y="-585.687">Data</text>
  </g>
  <line style="fill: none; fill-opacity:0; stroke-width: 2; stroke: #000000" x1="416.08" y1="-517.942" x2="416.08" y2="-517.942"/>
  <line style="fill: none; fill-opacity:0; stroke-width: 2; stroke: #000000" x1="421.843" y1="-547.106" x2="426.524" y2="-570.797"/>
  <g>
    <ellipse style="fill: #ffa500" cx="534.434" cy="-532.795" rx="39.25" ry="18"/>
    <ellipse style="fill: none; fill-opacity:0; stroke-width: 2; stroke: #000000" cx="534.434" cy="-532.795" rx="39.25" ry="18"/>
    <text font-size="12.7998" style="fill: #000000;text-anchor:middle;font-family:monospace;font-style:normal;font-weight:normal" x="534.434" y="-528.795">ocena</text>
  </g>
  <line style="fill: none; fill-opacity:0; stroke-width: 2; stroke: #000000" x1="463.988" y1="-523.955" x2="495.584" y2="-527.92"/>
  <g>
    <rect style="fill: #00ff00" x="359.769" y="-409.23" width="97.3" height="36"/>
    <rect style="fill: none; fill-opacity:0; stroke-width: 2; stroke: #000000" x="359.769" y="-409.23" width="97.3" height="36"/>
    <text font-size="12.7998" style="fill: #000000;text-anchor:middle;font-family:monospace;font-style:normal;font-weight:normal" x="408.419" y="-387.23">Przedmiot</text>
  </g>
  <g>
    <ellipse style="fill: #00ff00" cx="500.449" cy="-441.434" rx="43.1" ry="18"/>
    <ellipse style="fill: none; fill-opacity:0; stroke-width: 2; stroke: #000000" cx="500.449" cy="-441.434" rx="43.1" ry="18"/>
    <text font-size="12.7998" style="fill: #000000;text-anchor:middle;font-family:monospace;font-style:normal;font-weight:normal" x="500.449" y="-437.434">rodzaj</text>
  </g>
  <g>
    <ellipse style="fill: #00ff00" cx="527.863" cy="-390.937" rx="39.25" ry="18"/>
    <ellipse style="fill: none; fill-opacity:0; stroke-width: 2; stroke: #000000" cx="527.863" cy="-390.937" rx="39.25" ry="18"/>
    <text font-size="12.7998" style="fill: #000000;text-anchor:middle;font-family:monospace;font-style:normal;font-weight:normal" x="527.863" y="-386.937">nazwa</text>
  </g>
  <g>
    <ellipse style="fill: #00ff00" cx="450.406" cy="-332.248" rx="70.05" ry="18"/>
    <ellipse style="fill: none; fill-opacity:0; stroke-width: 2; stroke: #000000" cx="450.406" cy="-332.248" rx="70.05" ry="18"/>
    <text font-size="12.7998" style="fill: #000000;text-anchor:middle;font-family:monospace;font-style:normal;font-weight:normal" x="450.406" y="-328.248">liczba godzin</text>
  </g>
  <g>
    <ellipse style="fill: #00ff00" cx="371.035" cy="-453.162" rx="31.55" ry="18"/>
    <ellipse style="fill: none; fill-opacity:0; stroke-width: 2; stroke: #000000" cx="371.035" cy="-453.162" rx="31.55" ry="18"/>
    <text font-size="12.7998" style="fill: #000000;text-anchor:middle;font-family:monospace;font-style:normal;font-weight:normal" x="371.035" y="-449.162">kod</text>
    <line style="fill: none; fill-opacity:0; stroke-width: 2; stroke: #000000" x1="359.485" y1="-445.162" x2="382.585" y2="-445.162"/>
  </g>
  <line style="fill: none; fill-opacity:0; stroke-width: 2; stroke: #000000" x1="458.066" y1="-391.108" x2="487.613" y2="-391.036"/>
  <line style="fill: none; fill-opacity:0; stroke-width: 2; stroke: #000000" x1="443.256" y1="-410.234" x2="473.369" y2="-426.662"/>
  <line style="fill: none; fill-opacity:0; stroke-width: 2; stroke: #000000" x1="396.951" y1="-410.229" x2="381.828" y2="-435.283"/>
  <line style="fill: none; fill-opacity:0; stroke-width: 2; stroke: #000000" x1="421.909" y1="-372.28" x2="437.218" y2="-350.773"/>
  <g>
    <polygon style="fill: #0000ff" points="149.76,-395.343 208.26,-430.443 266.76,-395.343 208.26,-360.243 "/>
    <polygon style="fill: none; fill-opacity:0; stroke-width: 2; stroke: #000000" points="149.76,-395.343 208.26,-430.443 266.76,-395.343 208.26,-360.243 "/>
    <text font-size="12.7998" style="fill: #000000;text-anchor:end;font-family:monospace;font-style:normal;font-weight:normal" x="143.76" y="-401.343"></text>
    <text font-size="12.7998" style="fill: #000000;text-anchor:start;font-family:monospace;font-style:normal;font-weight:normal" x="272.76" y="-401.343"></text>
    <text font-size="12.7998" style="fill: #000000;text-anchor:middle;font-family:monospace;font-style:normal;font-weight:normal" x="208.26" y="-391.343">odbywa się</text>
  </g>
  <g>
    <rect style="fill: #ffa500" x="-14.2878" y="-413.473" width="74.2" height="36"/>
    <rect style="fill: none; fill-opacity:0; stroke-width: 2; stroke: #000000" x="-14.2878" y="-413.473" width="74.2" height="36"/>
    <text font-size="12.7998" style="fill: #000000;text-anchor:middle;font-family:monospace;font-style:normal;font-weight:normal" x="22.8122" y="-391.473">termin</text>
  </g>
  <g>
    <ellipse style="fill: #ffa500" cx="92.844" cy="-437.899" rx="39.25" ry="18"/>
    <ellipse style="fill: none; fill-opacity:0; stroke-width: 2; stroke: #000000" cx="92.844" cy="-437.899" rx="39.25" ry="18"/>
    <text font-size="12.7998" style="fill: #000000;text-anchor:middle;font-family:monospace;font-style:normal;font-weight:normal" x="92.844" y="-433.899">dzień</text>
  </g>
  <g>
    <ellipse style="fill: #ffa500" cx="10.9642" cy="-469.425" rx="46.95" ry="18"/>
    <ellipse style="fill: none; fill-opacity:0; stroke-width: 2; stroke: #000000" cx="10.9642" cy="-469.425" rx="46.95" ry="18"/>
    <text font-size="12.7998" style="fill: #000000;text-anchor:middle;font-family:monospace;font-style:normal;font-weight:normal" x="10.9642" y="-465.425">godzina</text>
  </g>
  <g>
    <ellipse style="fill: #ffa500" cx="-55.7397" cy="-424.878" rx="35.4" ry="18"/>
    <ellipse style="fill: none; fill-opacity:0; stroke-width: 2; stroke: #000000" cx="-55.7397" cy="-424.878" rx="35.4" ry="18"/>
    <text font-size="12.7998" style="fill: #000000;text-anchor:middle;font-family:monospace;font-style:normal;font-weight:normal" x="-55.7397" y="-420.878">sala</text>
  </g>
  <line style="fill: none; fill-opacity:0; stroke-width: 2; stroke: #000000" x1="-15.2843" y1="-409.734" x2="-31.1922" y2="-415.689"/>
  <line style="fill: none; fill-opacity:0; stroke-width: 2; stroke: #000000" x1="68.326" y1="-423.046" x2="54.1692" y2="-414.469"/>
  <line style="fill: none; fill-opacity:0; stroke-width: 2; stroke: #000000" x1="13.9985" y1="-450.486" x2="19.7678" y2="-414.475"/>
  <g>
    <polygon style="fill: #0000ff" points="190.63,-297.848 241.43,-328.328 292.23,-297.848 241.43,-267.368 "/>
    <polygon style="fill: none; fill-opacity:0; stroke-width: 2; stroke: #000000" points="190.63,-297.848 241.43,-328.328 292.23,-297.848 241.43,-267.368 "/>
    <text font-size="12.7998" style="fill: #000000;text-anchor:end;font-family:monospace;font-style:normal;font-weight:normal" x="184.63" y="-303.848"></text>
    <text font-size="12.7998" style="fill: #000000;text-anchor:start;font-family:monospace;font-style:normal;font-weight:normal" x="298.23" y="-303.848"></text>
    <text font-size="12.7998" style="fill: #000000;text-anchor:middle;font-family:monospace;font-style:normal;font-weight:normal" x="241.43" y="-293.848">prowadzi</text>
  </g>
  <g>
    <rect style="fill: #90ee90" x="9.75366" y="-287.609" width="105" height="36"/>
    <rect style="fill: none; fill-opacity:0; stroke-width: 2; stroke: #000000" x="9.75366" y="-287.609" width="105" height="36"/>
    <text font-size="12.7998" style="fill: #000000;text-anchor:middle;font-family:monospace;font-style:normal;font-weight:normal" x="62.2537" y="-265.609">nauczyciel</text>
  </g>
  <g>
    <ellipse style="fill: #ffffff" cx="-41.8199" cy="-302.842" rx="35.4" ry="18"/>
    <ellipse style="fill: none; fill-opacity:0; stroke-width: 2; stroke: #000000" cx="-41.8199" cy="-302.842" rx="35.4" ry="18"/>
    <text font-size="12.7998" style="fill: #000000;text-anchor:middle;font-family:monospace;font-style:normal;font-weight:normal" x="-41.8199" y="-298.842">imie</text>
  </g>
  <g>
    <ellipse style="fill: #ffffff" cx="-43.8752" cy="-243.153" rx="50.8" ry="18"/>
    <ellipse style="fill: none; fill-opacity:0; stroke-width: 2; stroke: #000000" cx="-43.8752" cy="-243.153" rx="50.8" ry="18"/>
    <text font-size="12.7998" style="fill: #000000;text-anchor:middle;font-family:monospace;font-style:normal;font-weight:normal" x="-43.8752" y="-239.153">nazwisko</text>
  </g>
  <g>
    <ellipse style="fill: #ffffff" cx="63.2898" cy="-325.177" rx="46.95" ry="18"/>
    <ellipse style="fill: none; fill-opacity:0; stroke-width: 2; stroke: #000000" cx="63.2898" cy="-325.177" rx="46.95" ry="18"/>
    <text font-size="12.7998" style="fill: #000000;text-anchor:middle;font-family:monospace;font-style:normal;font-weight:normal" x="63.2898" y="-321.177">nr. leg</text>
    <line style="fill: none; fill-opacity:0; stroke-width: 2; stroke: #000000" x1="36.3398" y1="-317.177" x2="90.2398" y2="-317.177"/>
  </g>
  <line style="fill: none; fill-opacity:0; stroke-width: 2; stroke: #000000" x1="62.6079" y1="-288.608" x2="62.9355" y2="-306.177"/>
  <line style="fill: none; fill-opacity:0; stroke-width: 2; stroke: #000000" x1="8.7617" y1="-256.274" x2="-1.36925" y2="-253.749"/>
  <line style="fill: none; fill-opacity:0; stroke-width: 2; stroke: #000000" x1="8.76861" y1="-286.688" x2="-10.8976" y2="-292.968"/>
  <g>
    <line style="fill: none; fill-opacity:0; stroke-width: 2; stroke: #000000" x1="292.23" y1="-297.848" x2="359.769" y2="-373.23"/>
    <line style="fill: none; fill-opacity:0; stroke-width: 2; stroke: #000000" x1="353.096" y1="-365.782" x2="363.493" y2="-369.894"/>
    <line style="fill: none; fill-opacity:0; stroke-width: 2; stroke: #000000" x1="353.096" y1="-365.782" x2="356.045" y2="-376.567"/>
    <path style="fill: none; fill-opacity:0; stroke-width: 2; stroke: #000000" d="M 351.428 -363.92 C 353.29,-362.252 354.318,-359.653 353.484,-358.722 C 352.649,-357.791 349.953,-358.528 348.091,-360.196 C 346.229,-361.864 345.201,-364.464 346.036,-365.395 C 346.87,-366.326 349.566,-365.588 351.428,-363.92"/>
  </g>
  <g>
    <line style="fill: none; fill-opacity:0; stroke-width: 2; stroke: #000000" x1="190.63" y1="-297.848" x2="114.754" y2="-269.609"/>
    <line style="fill: none; fill-opacity:0; stroke-width: 2; stroke: #000000" x1="121.184" y1="-266.667" x2="117.696" y2="-276.039"/>
    <line style="fill: none; fill-opacity:0; stroke-width: 2; stroke: #000000" x1="125.87" y1="-268.411" x2="122.382" y2="-277.783"/>
  </g>
  <g>
    <line style="fill: none; fill-opacity:0; stroke-width: 2; stroke: #000000" x1="369.13" y1="-517.942" x2="278.791" y2="-554.849"/>
    <line style="fill: none; fill-opacity:0; stroke-width: 2; stroke: #000000" x1="288.048" y1="-551.067" x2="280.682" y2="-559.478"/>
    <line style="fill: none; fill-opacity:0; stroke-width: 2; stroke: #000000" x1="288.048" y1="-551.067" x2="276.9" y2="-550.221"/>
    <path style="fill: none; fill-opacity:0; stroke-width: 2; stroke: #000000" d="M 290.362 -550.122 C 291.308,-552.436 293.41,-554.278 294.567,-553.805 C 295.725,-553.332 295.936,-550.545 294.991,-548.231 C 294.045,-545.916 291.943,-544.075 290.786,-544.548 C 289.628,-545.02 289.417,-547.807 290.362,-550.122"/>
  </g>
  <g>
    <line style="fill: none; fill-opacity:0; stroke-width: 2; stroke: #000000" x1="416.08" y1="-489.772" x2="408.419" y2="-409.23"/>
    <line style="fill: none; fill-opacity:0; stroke-width: 2; stroke: #000000" x1="409.366" y1="-419.185" x2="403.441" y2="-409.704"/>
    <line style="fill: none; fill-opacity:0; stroke-width: 2; stroke: #000000" x1="409.366" y1="-419.185" x2="413.397" y2="-408.757"/>
    <path style="fill: none; fill-opacity:0; stroke-width: 2; stroke: #000000" d="M 409.603 -421.674 C 407.114,-421.911 404.743,-423.392 404.862,-424.636 C 404.98,-425.88 407.587,-426.888 410.076,-426.651 C 412.565,-426.415 414.935,-424.934 414.817,-423.689 C 414.699,-422.445 412.091,-421.437 409.603,-421.674"/>
  </g>
  <g>
    <line style="fill: none; fill-opacity:0; stroke-width: 2; stroke: #000000" x1="266.76" y1="-395.343" x2="359.769" y2="-391.23"/>
    <line style="fill: none; fill-opacity:0; stroke-width: 2; stroke: #000000" x1="354.995" y1="-396.446" x2="354.553" y2="-386.456"/>
    <path style="fill: none; fill-opacity:0; stroke-width: 2; stroke: #000000" d="M 347.281 -391.782 C 347.171,-389.285 345.812,-386.842 344.563,-386.898 C 343.314,-386.953 342.176,-389.506 342.286,-392.003 C 342.397,-394.501 343.756,-396.943 345.005,-396.888 C 346.253,-396.833 347.392,-394.28 347.281,-391.782"/>
  </g>
  <g>
    <line style="fill: none; fill-opacity:0; stroke-width: 2; stroke: #000000" x1="149.76" y1="-395.343" x2="59.9122" y2="-395.473"/>
    <line style="fill: none; fill-opacity:0; stroke-width: 2; stroke: #000000" x1="64.905" y1="-390.465" x2="64.9194" y2="-400.465"/>
    <line style="fill: none; fill-opacity:0; stroke-width: 2; stroke: #000000" x1="69.905" y1="-390.458" x2="69.9194" y2="-400.458"/>
  </g>
</svg>
